<svg data-v-423bf9ae="" xmlns="http://www.w3.org/2000/svg" viewBox="0 0 73.1204061628399 60" class="icon"><!----><!----><!----><!----><g data-v-423bf9ae="" id="42673ae3-b3ea-4e8b-a66c-7db016cf2bd8" transform="matrix(0.7465303981377748,0,0,0.7465303981377748,-0.765939734749935,-7.326450136095758)" stroke="none" fill="white"><path d="M83.611 22.29H46.527c-8.471 0-15.363 6.892-15.363 15.363v19.309c0 8.471 6.892 15.363 15.363 15.363h25.716l12.1 13.824 3.303 3.733a.905.905 0 0 0 1 .244.909.909 0 0 0 .584-.846V71.252a15.374 15.374 0 0 0 9.743-14.291V37.653c.001-8.471-6.891-15.363-15.362-15.363zm11.666 34.672c0 4.765-2.864 9.005-7.295 10.802a9.813 9.813 0 0 1-1.742.561.902.902 0 0 0-.706.882v12.689l-9.675-11.073-1.656-1.887a.91.91 0 0 0-.679-.308H46.527c-6.435 0-11.666-5.231-11.666-11.666V37.653c0-6.43 5.231-11.666 11.666-11.666h37.084c6.43 0 11.666 5.236 11.666 11.666v19.309z"></path><path d="M28.499 45.468h-5.168a.896.896 0 0 0-.679.308L21 47.663 14.466 55.5v-9.458a.908.908 0 0 0-.71-.882 10.145 10.145 0 0 1-1.729-.552c-4.444-1.806-7.304-6.046-7.304-10.806v-8.625c0-6.435 5.231-11.666 11.666-11.666h27.024c4.405 0 8.397 2.482 10.389 6.382h4.039c-.35-.95-.795-1.869-1.328-2.735-2.824-4.598-7.72-7.344-13.1-7.344H16.389c-8.471 0-15.363 6.892-15.363 15.363v8.625a15.357 15.357 0 0 0 9.743 14.286v14.888a.9.9 0 0 0 .905.905.906.906 0 0 0 .679-.303l3.299-3.729c.005-.005.009-.009.014-.018l8.955-10.67h3.878v-3.693z"></path></g><!----></svg>