<svg data-v-423bf9ae="" xmlns="http://www.w3.org/2000/svg" viewBox="0 0 514 90" class="iconLeft"><!----><!----><!----><g data-v-423bf9ae="" id="a441e238-0d6b-4478-a2a7-2ce2c27b381c" fill="white" transform="matrix(5.484460426963632,0,0,5.484460426963632,126.82869888323373,-25.255941324449623)"><path d="M4.49 11.00L4.49 11.00Q5.14 11.00 5.69 11.34L5.69 11.34L5.69 11.34Q6.24 11.68 6.55 12.38L6.55 12.38L5.10 13.16L5.10 13.16Q4.96 12.57 4.59 12.24L4.59 12.24L4.59 12.24Q4.23 11.91 3.81 11.91L3.81 11.91L3.81 11.91Q3.25 11.91 2.81 12.26L2.81 12.26L2.81 12.26Q2.38 12.60 2.15 13.15L2.15 13.15L2.15 13.15Q1.92 13.69 1.92 14.29L1.92 14.29L1.92 14.29Q1.92 15.23 2.21 15.92L2.21 15.92L2.21 15.92Q2.51 16.60 3.02 16.96L3.02 16.96L3.02 16.96Q3.53 17.32 4.17 17.32L4.17 17.32L4.17 17.32Q5.46 17.32 6.65 15.85L6.65 15.85L6.97 16.13L6.97 16.13Q6.27 17.15 5.48 17.70L5.48 17.70L5.48 17.70Q4.69 18.26 3.60 18.26L3.60 18.26L3.60 18.26Q2.72 18.26 2.02 17.84L2.02 17.84L2.02 17.84Q1.32 17.43 0.92 16.68L0.92 16.68L0.92 16.68Q0.52 15.93 0.52 14.95L0.52 14.95L0.52 14.95Q0.52 13.87 0.99 12.97L0.99 12.97L0.99 12.97Q1.47 12.07 2.37 11.54L2.37 11.54L2.37 11.54Q3.28 11.00 4.49 11.00L4.49 11.00ZM11.20 10.93L11.47 11.26L11.47 11.26Q10.54 11.91 10.02 12.75L10.02 12.75L10.02 12.75Q9.49 13.58 9.49 14.70L9.49 14.70L9.49 14.70Q9.49 15.32 9.73 15.95L9.73 15.95L9.73 15.95Q9.97 16.58 10.43 16.99L10.43 16.99L10.43 16.99Q10.89 17.40 11.54 17.40L11.54 17.40L11.54 17.40Q12.35 17.40 12.84 16.81L12.84 16.81L12.84 16.81Q13.34 16.23 13.34 15.36L13.34 15.36L13.34 15.36Q13.34 14.70 13.00 14.02L13.00 14.02L13.00 14.02Q12.66 13.34 12.08 12.87L12.08 12.87L12.08 12.87Q11.51 12.40 10.85 12.35L10.85 12.35L10.85 12.35Q11.14 12.03 11.49 11.76L11.49 11.76L11.49 11.76Q11.83 11.49 12.35 11.12L12.35 11.12L12.35 11.12Q13.36 11.45 13.95 12.36L13.95 12.36L13.95 12.36Q14.55 13.27 14.55 14.36L14.55 14.36L14.55 14.36Q14.55 15.33 14.12 16.24L14.12 16.24L14.12 16.24Q13.69 17.15 12.89 17.72L12.89 17.72L12.89 17.72Q12.08 18.28 11.02 18.28L11.02 18.28L11.02 18.28Q10.14 18.28 9.40 17.87L9.40 17.87L9.40 17.87Q8.67 17.46 8.23 16.74L8.23 16.74L8.23 16.74Q7.80 16.02 7.80 15.15L7.80 15.15L7.80 15.15Q7.80 13.65 8.74 12.52L8.74 12.52L8.74 12.52Q9.69 11.38 11.20 10.93L11.20 10.93ZM21.22 10.96L21.22 10.96Q21.71 10.96 21.94 11.25L21.94 11.25L21.94 11.25Q22.16 11.54 22.22 11.92L22.22 11.92L22.22 11.92Q22.27 12.31 22.27 12.91L22.27 12.91L22.27 16.80L22.27 16.80Q22.27 16.97 22.38 17.12L22.38 17.12L22.38 17.12Q22.48 17.26 22.64 17.26L22.64 17.26L22.64 17.26Q22.85 17.26 23.01 17.13L23.01 17.13L23.01 17.13Q23.17 17.00 23.35 16.77L23.35 16.77L23.59 17.04L23.59 17.04Q23.34 17.53 22.90 17.86L22.90 17.86L22.90 17.86Q22.46 18.19 21.95 18.19L21.95 18.19L21.95 18.19Q21.28 18.19 20.94 17.80L20.94 17.80L20.94 17.80Q20.61 17.42 20.61 16.72L20.61 16.72L20.61 13.05L20.61 13.05Q20.61 12.85 20.57 12.71L20.57 12.71L20.57 12.71Q20.52 12.57 20.37 12.57L20.37 12.57L20.37 12.57Q19.89 12.57 19.40 13.59L19.40 13.59L19.40 13.59Q18.91 14.60 18.58 15.92L18.58 15.92L18.58 15.92Q18.24 17.23 18.24 17.91L18.24 17.91L16.60 18.27L16.60 12.39L16.60 12.39Q16.60 12.18 16.51 12.04L16.51 12.04L16.51 12.04Q16.41 11.90 16.23 11.90L16.23 11.90L16.23 11.90Q16.03 11.90 15.84 12.06L15.84 12.06L15.84 12.06Q15.65 12.22 15.53 12.43L15.53 12.43L15.27 12.15L15.27 12.15Q15.48 11.66 15.93 11.31L15.93 11.31L15.93 11.31Q16.38 10.96 16.90 10.96L16.90 10.96L16.90 10.96Q17.60 10.96 17.92 11.35L17.92 11.35L17.92 11.35Q18.24 11.73 18.24 12.42L18.24 12.42L18.24 15.12L18.30 15.12L18.30 15.12Q18.68 13.57 19.43 12.26L19.43 12.26L19.43 12.26Q20.17 10.96 21.22 10.96L21.22 10.96ZM28.10 12.01L26.68 12.01L26.68 16.80L26.68 16.80Q26.68 17.00 26.80 17.13L26.80 17.13L26.80 17.13Q26.91 17.26 27.09 17.26L27.09 17.26L27.09 17.26Q27.43 17.26 27.85 16.77L27.85 16.77L28.10 17.04L28.10 17.04Q27.85 17.54 27.47 17.79L27.47 17.79L27.47 17.79Q27.09 18.05 26.74 18.13L26.74 18.13L26.74 18.13Q26.39 18.21 26.39 18.19L26.39 18.19L26.39 18.19Q24.99 18.19 24.99 16.72L24.99 16.72L24.99 12.01L24.00 12.01L24.43 11.09L24.99 11.09L24.99 7.91L26.68 7.34L26.68 11.09L28.52 11.09L28.10 12.01ZM26.39 18.19L26.39 18.19ZM33.04 11.09L33.04 11.09Q33.78 11.09 34.42 11.38L34.42 11.38L34.42 11.38Q35.06 11.68 35.36 12.29L35.36 12.29L34.01 12.85L34.01 12.85Q33.81 12.49 33.46 12.25L33.46 12.25L33.46 12.25Q33.11 12.01 32.72 12.01L32.72 12.01L32.72 12.01Q31.78 12.01 31.23 12.80L31.23 12.80L31.23 12.80Q30.69 13.58 30.69 14.76L30.69 14.76L30.69 14.76Q30.69 15.83 31.01 16.53L31.01 16.53L31.01 16.53Q31.33 17.22 32.03 17.22L32.03 17.22L32.03 17.22Q33.01 17.22 33.38 16.30L33.38 16.30L33.38 16.30Q33.74 15.39 33.74 14.31L33.74 14.31L33.74 13.69L35.38 13.10L35.38 16.74L35.38 16.74Q35.38 16.94 35.47 17.09L35.47 17.09L35.47 17.09Q35.56 17.23 35.74 17.23L35.74 17.23L35.74 17.23Q36.09 17.23 36.46 16.74L36.46 16.74L36.72 17.01L36.72 17.01Q36.51 17.50 36.06 17.84L36.06 17.84L36.06 17.84Q35.60 18.19 35.08 18.19L35.08 18.19L35.08 18.19Q34.41 18.19 34.10 17.73L34.10 17.73L34.10 17.73Q33.80 17.28 33.80 16.56L33.80 16.56L33.74 16.56L33.74 16.56Q33.40 17.32 32.84 17.79L32.84 17.79L32.84 17.79Q32.28 18.26 31.54 18.26L31.54 18.26L31.54 18.26Q30.42 18.26 29.81 17.44L29.81 17.44L29.81 17.44Q29.20 16.62 29.20 15.30L29.20 15.30L29.20 15.30Q29.20 14.18 29.69 13.22L29.69 13.22L29.69 13.22Q30.17 12.25 31.04 11.67L31.04 11.67L31.04 11.67Q31.92 11.09 33.04 11.09L33.04 11.09ZM41.29 11.00L41.29 11.00Q41.93 11.00 42.48 11.34L42.48 11.34L42.48 11.34Q43.04 11.68 43.34 12.38L43.34 12.38L41.89 13.16L41.89 13.16Q41.75 12.57 41.38 12.24L41.38 12.24L41.38 12.24Q41.02 11.91 40.60 11.91L40.60 11.91L40.60 11.91Q40.04 11.91 39.61 12.26L39.61 12.26L39.61 12.26Q39.17 12.60 38.94 13.15L38.94 13.15L38.94 13.15Q38.71 13.69 38.71 14.29L38.71 14.29L38.71 14.29Q38.71 15.23 39.00 15.92L39.00 15.92L39.00 15.92Q39.30 16.60 39.81 16.96L39.81 16.96L39.81 16.96Q40.32 17.32 40.96 17.32L40.96 17.32L40.96 17.32Q42.25 17.32 43.44 15.85L43.44 15.85L43.76 16.13L43.76 16.13Q43.06 17.15 42.27 17.70L42.27 17.70L42.27 17.70Q41.48 18.26 40.39 18.26L40.39 18.26L40.39 18.26Q39.51 18.26 38.81 17.84L38.81 17.84L38.81 17.84Q38.11 17.43 37.71 16.68L37.71 16.68L37.71 16.68Q37.31 15.93 37.31 14.95L37.31 14.95L37.31 14.95Q37.31 13.87 37.79 12.97L37.79 12.97L37.79 12.97Q38.26 12.07 39.16 11.54L39.16 11.54L39.16 11.54Q40.07 11.00 41.29 11.00L41.29 11.00ZM48.41 12.01L47.00 12.01L47.00 16.80L47.00 16.80Q47.00 17.00 47.11 17.13L47.11 17.13L47.11 17.13Q47.22 17.26 47.40 17.26L47.40 17.26L47.40 17.26Q47.74 17.26 48.16 16.77L48.16 16.77L48.41 17.04L48.41 17.04Q48.16 17.54 47.78 17.79L47.78 17.79L47.78 17.79Q47.40 18.05 47.05 18.13L47.05 18.13L47.05 18.13Q46.70 18.21 46.70 18.19L46.70 18.19L46.70 18.19Q45.30 18.19 45.30 16.72L45.30 16.72L45.30 12.01L44.31 12.01L44.74 11.09L45.30 11.09L45.30 7.91L47.00 7.34L47.00 11.09L48.83 11.09L48.41 12.01ZM46.70 18.19L46.70 18.19ZM51.38 17.35L51.38 17.35Q51.38 17.72 51.09 18.00L51.09 18.00L51.09 18.00Q50.81 18.27 50.41 18.27L50.41 18.27L50.41 18.27Q50.02 18.27 49.74 18.00L49.74 18.00L49.74 18.00Q49.46 17.74 49.46 17.35L49.46 17.35L49.46 17.35Q49.46 16.97 49.74 16.68L49.74 16.68L49.74 16.68Q50.02 16.39 50.41 16.39L50.41 16.39L50.41 16.39Q50.81 16.39 51.09 16.68L51.09 16.68L51.09 16.68Q51.38 16.97 51.38 17.35L51.38 17.35ZM60.77 10.96L60.77 10.96Q61.31 10.96 61.55 11.30L61.55 11.30L61.55 11.30Q61.80 11.65 61.80 12.32L61.80 12.32L61.80 16.80L61.80 16.80Q61.80 17.00 61.89 17.13L61.89 17.13L61.89 17.13Q61.99 17.26 62.16 17.26L62.16 17.26L62.16 17.26Q62.31 17.26 62.50 17.14L62.50 17.14L62.50 17.14Q62.69 17.01 62.86 16.77L62.86 16.77L63.11 17.04L63.11 17.04Q62.76 17.75 62.26 17.97L62.26 17.97L62.26 17.97Q61.75 18.19 61.47 18.19L61.47 18.19L61.47 18.19Q60.12 18.19 60.12 16.72L60.12 16.72L60.12 12.94L60.12 12.94Q60.12 12.80 60.05 12.68L60.05 12.68L60.05 12.68Q59.99 12.57 59.89 12.57L59.89 12.57L59.89 12.57Q59.60 12.57 59.28 13.24L59.28 13.24L59.28 13.24Q58.97 13.90 58.75 15.12L58.75 15.12L58.75 15.12Q58.53 16.34 58.53 17.91L58.53 17.91L56.84 18.27L56.84 12.94L56.84 12.94Q56.84 12.80 56.78 12.68L56.78 12.68L56.78 12.68Q56.73 12.57 56.63 12.57L56.63 12.57L56.63 12.57Q56.36 12.57 56.03 13.24L56.03 13.24L56.03 13.24Q55.71 13.92 55.47 15.13L55.47 15.13L55.47 15.13Q55.24 16.35 55.24 17.91L55.24 17.91L53.62 18.27L53.62 12.39L53.62 12.39Q53.62 12.17 53.52 12.03L53.52 12.03L53.52 12.03Q53.41 11.90 53.24 11.90L53.24 11.90L53.24 11.90Q53.07 11.90 52.89 12.04L52.89 12.04L52.89 12.04Q52.71 12.18 52.56 12.43L52.56 12.43L52.29 12.15L52.29 12.15Q52.64 11.42 53.16 11.19L53.16 11.19L53.16 11.19Q53.68 10.96 53.94 10.96L53.94 10.96L53.94 10.96Q55.26 10.96 55.26 12.43L55.26 12.43L55.26 14.10L55.31 14.10L55.31 14.10Q55.66 12.63 56.26 11.80L56.26 11.80L56.26 11.80Q56.85 10.96 57.50 10.96L57.50 10.96L57.50 10.96Q58.06 10.96 58.28 11.30L58.28 11.30L58.28 11.30Q58.51 11.63 58.51 12.32L58.51 12.32L58.51 14.10L58.59 14.10L58.59 14.10Q58.93 12.63 59.52 11.80L59.52 11.80L59.52 11.80Q60.12 10.96 60.77 10.96L60.77 10.96ZM68.11 10.96L68.11 10.96Q68.92 10.96 69.47 11.38L69.47 11.38L69.47 11.38Q70.01 11.79 70.01 12.57L70.01 12.57L70.01 12.57Q70.01 13.20 69.33 13.98L69.33 13.98L69.33 13.98Q68.66 14.76 67.72 15.42L67.72 15.42L67.72 15.42Q66.79 16.09 66.14 16.38L66.14 16.38L66.14 16.38Q66.72 17.32 67.86 17.32L67.86 17.32L67.86 17.32Q68.49 17.32 69.13 16.96L69.13 16.96L69.13 16.96Q69.76 16.60 70.21 16.02L70.21 16.02L70.49 16.35L70.49 16.35Q69.76 17.26 68.96 17.76L68.96 17.76L68.96 17.76Q68.15 18.26 67.05 18.26L67.05 18.26L67.05 18.26Q66.15 18.26 65.44 17.85L65.44 17.85L65.44 17.85Q64.74 17.44 64.34 16.74L64.34 16.74L64.34 16.74Q63.94 16.03 63.94 15.15L63.94 15.15L63.94 15.15Q63.94 14.08 64.52 13.11L64.52 13.11L64.52 13.11Q65.10 12.14 66.07 11.55L66.07 11.55L66.07 11.55Q67.03 10.96 68.11 10.96L68.11 10.96ZM67.31 11.87L67.31 11.87Q66.78 11.87 66.36 12.26L66.36 12.26L66.36 12.26Q65.94 12.64 65.70 13.24L65.70 13.24L65.70 13.24Q65.46 13.85 65.46 14.49L65.46 14.49L65.46 14.49Q65.46 15.33 65.83 15.93L65.83 15.93L65.83 15.93Q66.35 15.64 66.93 15.11L66.93 15.11L66.93 15.11Q67.51 14.59 67.90 13.99L67.90 13.99L67.90 13.99Q68.29 13.38 68.29 12.89L68.29 12.89L68.29 12.89Q68.29 12.40 68.03 12.14L68.03 12.14L68.03 12.14Q67.77 11.87 67.31 11.87L67.31 11.87Z"></path></g><!----><g data-v-423bf9ae="" id="1736bda3-037a-41c0-9009-4f078c2923a5" transform="matrix(1.1197955972066622,0,0,1.1197955972066622,-0.9632149076058667,-10.17567412076962)" stroke="none" fill="white"><path d="M83.611 22.29H46.527c-8.471 0-15.363 6.892-15.363 15.363v19.309c0 8.471 6.892 15.363 15.363 15.363h25.716l12.1 13.824 3.303 3.733a.905.905 0 0 0 1 .244.909.909 0 0 0 .584-.846V71.252a15.374 15.374 0 0 0 9.743-14.291V37.653c.001-8.471-6.891-15.363-15.362-15.363zm11.666 34.672c0 4.765-2.864 9.005-7.295 10.802a9.813 9.813 0 0 1-1.742.561.902.902 0 0 0-.706.882v12.689l-9.675-11.073-1.656-1.887a.91.91 0 0 0-.679-.308H46.527c-6.435 0-11.666-5.231-11.666-11.666V37.653c0-6.43 5.231-11.666 11.666-11.666h37.084c6.43 0 11.666 5.236 11.666 11.666v19.309z"></path><path d="M28.499 45.468h-5.168a.896.896 0 0 0-.679.308L21 47.663 14.466 55.5v-9.458a.908.908 0 0 0-.71-.882 10.145 10.145 0 0 1-1.729-.552c-4.444-1.806-7.304-6.046-7.304-10.806v-8.625c0-6.435 5.231-11.666 11.666-11.666h27.024c4.405 0 8.397 2.482 10.389 6.382h4.039c-.35-.95-.795-1.869-1.328-2.735-2.824-4.598-7.72-7.344-13.1-7.344H16.389c-8.471 0-15.363 6.892-15.363 15.363v8.625a15.357 15.357 0 0 0 9.743 14.286v14.888a.9.9 0 0 0 .905.905.906.906 0 0 0 .679-.303l3.299-3.729c.005-.005.009-.009.014-.018l8.955-10.67h3.878v-3.693z"></path></g><!----></svg>